<?xml version="1.0" encoding="UTF-8" standalone="no"?>
<svg
   height="256"
   viewBox="0 0 256 256"
   width="256"
   version="1.1"
   id="svg8"
   sodipodi:docname="icon.svg"
   inkscape:version="1.2.2 (b0a8486541, 2022-12-01)"
   xmlns:inkscape="http://www.inkscape.org/namespaces/inkscape"
   xmlns:sodipodi="http://sodipodi.sourceforge.net/DTD/sodipodi-0.dtd"
   xmlns="http://www.w3.org/2000/svg"
   xmlns:svg="http://www.w3.org/2000/svg">
  <defs
     id="defs12" />
  <sodipodi:namedview
     id="namedview10"
     pagecolor="#505050"
     bordercolor="#eeeeee"
     borderopacity="1"
     inkscape:showpageshadow="0"
     inkscape:pageopacity="0"
     inkscape:pagecheckerboard="0"
     inkscape:deskcolor="#505050"
     showgrid="false"
     inkscape:zoom="4.0117188"
     inkscape:cx="107.18598"
     inkscape:cy="144.32717"
     inkscape:window-width="3840"
     inkscape:window-height="2131"
     inkscape:window-x="0"
     inkscape:window-y="0"
     inkscape:window-maximized="1"
     inkscape:current-layer="svg8" />
  <g
     fill="#e0e0e0"
     transform="matrix(0.44704029,0,0,0.44090625,13.557686,15.128)"
     id="g6">
    <path
       d="M 276.193,58.507 V 40.389 h 14.578 c 11.153,0 20.194,-9.042 20.194,-20.194 C 310.965,9.043 301.923,0 290.771,0 h -69.544 c -11.153,0 -20.194,9.042 -20.194,20.194 0,11.152 9.042,20.194 20.194,20.194 h 14.578 V 58.506 C 119.952,68.76 28.799,166.327 28.799,284.799 28.799,410.078 130.721,512 256,512 381.279,512 483.201,410.078 483.201,284.799 483.2,166.327 392.046,68.76 276.193,58.507 Z m 0,412.009 v -20.124 c 0,-11.153 -9.042,-20.194 -20.194,-20.194 -11.153,0 -20.194,9.042 -20.194,20.194 v 20.124 C 148.895,461.131 79.668,391.902 70.283,304.994 h 20.124 c 11.153,0 20.194,-9.042 20.194,-20.194 0,-11.152 -9.042,-20.194 -20.194,-20.194 H 70.282 c 9.385,-86.91 78.614,-156.137 165.522,-165.523 v 20.124 c 0,11.153 9.042,20.194 20.194,20.194 11.153,0 20.194,-9.042 20.194,-20.194 V 99.081 c 86.91,9.385 156.137,78.614 165.522,165.523 H 421.59 c -11.153,0 -20.194,9.042 -20.194,20.194 0,11.152 9.042,20.194 20.194,20.194 h 20.126 c -9.385,86.911 -78.613,156.14 -165.523,165.524 z"
       id="path2"
       style="fill:#0ea5e9;fill-opacity:1;stroke:none" />
    <path
       d="m 317.248,194.99 -58.179,58.18 c -1.011,-0.097 -2.034,-0.151 -3.071,-0.151 -17.552,0 -31.779,14.229 -31.779,31.779 0,17.552 14.228,31.779 31.779,31.779 17.551,0 31.779,-14.229 31.779,-31.779 0,-1.037 -0.054,-2.06 -0.151,-3.07 l 58.178,-58.18 c 7.887,-7.885 7.887,-20.672 0,-28.559 -7.882,-7.886 -20.669,-7.886 -28.556,0.001 z"
       id="path4" />
  </g>
</svg>
